<?xml version="1.0" encoding="iso-8859-1"?>
<!-- Generator: Adobe Illustrator 19.1.0, SVG Export Plug-In . SVG Version: 6.00 Build 0)  -->
<svg version="1.1" id="Layer_4" xmlns="http://www.w3.org/2000/svg" xmlns:xlink="http://www.w3.org/1999/xlink" x="0px" y="0px"
	 viewBox="0 0 1000 1000" enable-background="new 0 0 1000 1000" xml:space="preserve">
<circle fill-rule="evenodd" clip-rule="evenodd" fill="#299D59" cx="500" cy="500" r="500"/>
<path fill="#FFFFFF" d="M162.6509705,706.7470703v-1.8939209l1.1369171-2.2716675v-1.1369629l0.3785095-2.651123v-89.7636719
	c0-10.8527832,3.7871094-20.072876,11.3621063-27.6488647c7.5750122-7.5739746,16.6005859-11.3620605,27.0814514-11.3620605
	c10.4742126,0,19.5054626,3.7288818,27.080658,11.1732178c7.5750122,7.4501953,11.4859467,16.3517456,11.7406311,26.7009888
	v90.9003906c0,5.3024902,2.083786,9.9772949,6.2494049,14.0151978c4.1666107,4.041626,8.9597626,6.0595703,14.3927765,6.0595703
	c5.4265747,0,10.0957031-1.953125,14.0132751-5.8706665c3.9121094-3.9119263,5.8709106-8.6461182,5.8709106-14.2041016v-90.9003906
	c0.5035095-10.6049194,4.5453186-19.5636597,12.1203003-26.8898315c7.5750122-7.3203125,16.5996094-10.984375,27.0804749-10.984375
	c10.4751892,0,19.5054626,3.7880859,27.0804749,11.3620605c7.5751953,7.5759888,11.3630676,16.7960815,11.3630676,27.6488647
	v89.7636719c0,5.5579834,2.0179749,10.2921753,6.0597839,14.2041016c4.0359192,3.9175415,8.8357239,5.8706665,14.3927612,5.8706665
	c5.5503845,0,10.2853699-1.953125,14.203125-5.8706665c3.9119263-3.9119263,5.870697-8.6461182,5.870697-14.2041016v-89.7636719
	c0-21.9667969-7.705658-40.7160034-23.1036987-56.2437744c-15.4046936-15.5296631-34.721283-23.2925415-57.9490356-23.2925415
	c-23.234375,0-42.2964783,8.7106934-57.1917725,26.1325684c-15.403717-17.421875-35.2240295-26.1325684-59.4634857-26.1325684
	c-14.1439362,0-27.6490173,3.7861328-40.5265656,11.3620605c-3.2843628-7.5759277-9.3439331-11.3620605-18.1798706-11.3620605
	c-5.5570374,0-10.2910156,1.9587402-14.2029419,5.8688965c-3.9177628,3.9176025-5.8708878,8.7775879-5.8708878,14.5836182
	V698.793396c0,4.8007812,1.5154266,8.9663696,4.545311,12.4987793c3.0296783,3.5400391,6.9417877,5.935791,11.7406158,7.1965332
	l3.7879028,0.3794556C152.295105,718.8681641,158.609375,714.8322144,162.6509705,706.7470703L162.6509705,706.7470703z"/>
<path fill="#FFFFFF" d="M565.3839722,554.300415c-17.2978516-16.5349731-38.5724487-24.8070068-63.8179932-24.8070068
	c-25.2532959,0-46.7767334,9.2792969-64.578125,27.8376465c-17.8013306,18.5585938-26.831604,40.8458862-27.0804443,66.8488159
	c0.2488403,26.0105591,9.2791138,48.2310791,27.0804443,66.6599731
	c17.8013916,18.4343872,39.8931885,27.7136841,66.28125,27.8377075
	c26.3824463,0.1316528,48.6699219-8.1425781,66.8508301-24.8070068c7.0648193-8.5810547,7.0648193-16.7904663,0-24.6201172
	c-2.5292969-3.2767944-6.9484863-4.9228516-13.2561035-4.9228516c-6.3151855,0-11.3640137,2.0238037-15.1520996,6.0597534
	c-11.3619385,8.085144-24.8068848,11.1732178-40.3365479,9.2792969c-15.5286865-1.894165-27.335144-7.5093994-35.4127197-16.8533325
	c-6.3144531-5.8060303-10.6048584-14.1392822-12.8775024-24.9978638h120.4414062
	c6.0615234,0,10.9194946-1.7050781,14.5835571-5.1134644c3.6564941-3.4085693,5.4912109-7.888855,5.4912109-13.4449463v-1.894104
	C592.086731,591.8617554,582.6759644,570.8408203,565.3839722,554.300415z M451.190979,605.6212769
	c1.7633057-9.3382568,7.0656738-18.1808472,15.9072266-26.512085c8.8357544-8.3331909,20.5773926-12.8782959,35.2230835-13.6355591
	c15.1519165,1.2664185,27.7099609,6.0595703,37.6873169,14.3928223c9.9714355,8.3331909,16.0960693,16.920105,18.3695068,25.7548218
	H451.190979z"/>
<path fill="#FFFFFF" d="M638.883606,706.7470703v-1.8939209l1.1367188-2.2716675v-1.1369629l0.3776855-2.651123v-89.7636719
	c0-10.8527832,3.7879028-20.072876,11.3638916-27.6488647c7.5742188-7.5739746,16.5997925-11.3620605,27.0806274-11.3620605
	c10.4752197,0,19.5045166,3.7288818,27.0805054,11.1732178c7.5740356,7.4501953,11.486145,16.3517456,11.7415771,26.7009888
	v90.9003906c0,5.3024902,2.0828247,9.9772949,6.2486572,14.0151978c4.1655884,4.041626,8.9605103,6.0595703,14.3927612,6.0595703
	c5.4263916,0,10.09552-1.953125,14.0133057-5.8706665c3.9118652-3.9119263,5.8708496-8.6461182,5.8708496-14.2041016v-90.9003906
	c0.50354-10.6049194,4.545166-19.5636597,12.1191406-26.8898315c7.5759888-7.3203125,16.6015625-10.984375,27.0806885-10.984375
	c10.4752197,0,19.5064697,3.7880859,27.0823975,11.3620605c7.5740356,7.5759888,11.3621216,16.7960815,11.3621216,27.6488647
	v89.7636719c0,5.5579834,2.0180054,10.2921753,6.0595703,14.2041016c4.0359497,3.9175415,8.8347778,5.8706665,14.3927612,5.8706665
	c5.550415,0,10.2846069-1.953125,14.2021484-5.8706665c3.9121094-3.9119263,5.8709106-8.6461182,5.8709106-14.2041016v-89.7636719
	c0-21.9667969-7.7036743-40.7160034-23.1036987-56.2437744c-15.4036865-15.5296631-34.7195435-23.2925415-57.9490356-23.2925415
	c-23.2333984,0-42.2954712,8.7106934-57.1900024,26.1325684c-15.4057007-17.421875-35.2248535-26.1325684-59.4654541-26.1325684
	c-14.1429443,0-27.6488037,3.7861328-40.5253906,11.3620605c-3.2843628-7.5759277-9.3441162-11.3620605-18.1808472-11.3620605
	c-5.5560303,0-10.2900391,1.9587402-14.2021484,5.8688965c-3.9176025,3.9176025-5.8707275,8.7775879-5.8707275,14.5836182
	V698.793396c0,4.8007812,1.5144653,8.9663696,4.545166,12.4987793c3.0288696,3.5400391,6.9407959,5.935791,11.7415771,7.1965332
	l3.7861328,0.3794556C628.5267334,718.8681641,634.84198,714.8322144,638.883606,706.7470703L638.883606,706.7470703z"/>
<path fill-rule="evenodd" clip-rule="evenodd" fill="#FFFFFF" d="M822.3896484,458.0517883
	c-34.2426147,0-62.3378906,9.6300659-84.2914429,28.8886719c-22.7033081-19.258606-51.9142456-28.8886719-87.6408081-28.8886719
	c-20.84552,0-40.7505493,4.1864929-59.7306519,12.5597534c-5.3271484,2.8420105-8.5963135,4.7835999-11.1769409,6.1226501
	c-23.050415-12.4568481-49.0761719-18.7320251-78.1097717-18.7320251c-28.2964783,0-53.9140625,6.6662292-76.8804626,19.9355469
	c-21.4328308-13.6794739-47.4472656-20.538269-78.0687561-20.538269c-34.3789062,0-62.5847778,9.6683655-84.6261597,29.0031128
	c-22.7937622-19.3347473-52.1201324-29.0031128-87.9878998-29.0031128c-6.9398499,0-13.7652435,0.5072327-20.4972687,1.4324036
	c-0.0009766-0.1240234-0.0085907-0.2441406-0.0085907-0.3662109c0-58.4603271,47.3917999-105.8540955,105.8538971-105.8540955
	c1.4287109,0,2.8459167,0.0496216,4.2611389,0.1048889c6.285553-25.8865356,31.9298706-42.3927612,58.254303-37.03302
	c4.5669861,0.9289246,8.8318176,2.5006104,12.7857361,4.5261841
	c20.450592-79.9580078,100.2894592-130.6287079,182.0583801-113.9794922
	c34.8511963,7.0955048,64.5751953,25.3296967,86.2752075,50.2128906
	c13.0976562-9.4183502,29.8937378-13.610733,46.9474487-10.1394501c23.612915,4.8083954,41.072876,22.901535,46.3218994,44.8914032
	c2.7064209-0.1525269,5.4300537-0.2480469,8.1748047-0.2480469c79.0423584,0,143.119873,64.075592,143.119873,143.1199341
	c0,8.6765442-0.8164062,17.1566162-2.2944946,25.4077759C837.8449097,458.5609741,830.2878418,458.0517883,822.3896484,458.0517883z
	"/>
</svg>
